<svg xmlns="http://www.w3.org/2000/svg" xmlns:xlink="http://www.w3.org/1999/xlink" width="1024" height="1024" viewBox="0 0 1024 1024">
    <path fill="#0d0d0d" d="M843 1024H189c2-51 3-101-6-145l-76-20-48-43-9-12c-29-7-45-13-44-18 0-4 4-10 19-7-7-11 4-12 23-9 0-14 11-13 28 0 4-12 15-4 31 24l31-3c-8-10-18-18-21-25-7-23 14-28 40 7 57 12 102 50 116 152 12-92 121-174 173-151 4 1 3-9 0-24l-18 18-15-8-13 13-15-10-12 16v-16l-32 23-9-31-10 28-11-13c0 8 1 16 5 24-13-7-28-21-47-44l-5 23c-7-10-12-23-16-37l-3 14-7-34c-7 15-11 33-14 54-7-39-8-81 6-134-1-21-2-41 0-60l-30-20c-11-4-28-5-49-3 4-20 11-41 26-65-10 7-25 21-45 42 15-28 33-55 61-77-46-52-6-133 68-108 12-16 30-37 44-39 39-55 77-74 123-47 65-42 96-37 147 4 20 4 36 16 54 33 53-44 141 12 85 89 24 18 46 39 64 71-17-22-36-41-60-52 14 21 32 50 38 75l-50 13c26 56 39 134 16 209-1-13-20-34-24-48-6 24-6 61-22 83 0-8-13-29-16-35-15 25-33 48-53 69 3-7 5-15 6-22-4 2-5 5-10 9l-10-15-12 18-6-18-10 18-11-24c-3 12-4 23 0 34 76-24 188 75 202 192 26-54 20-116 38-152 57-50 99-81 105-71 9 7-15 29-33 50h33c52-20 94-34 100-29 3 3 3 6 0 10 17 0 28 3 11 14 12 6-11 16-27 38-13 8-29 16-46 24-29 20-56 35-79 43-10 45-15 89-15 135zM428 259c-16-40-1-102 35-74-21-6-35 38-35 74z"/>
</svg>