<svg xmlns="http://www.w3.org/2000/svg" xmlns:xlink="http://www.w3.org/1999/xlink" width="1024" height="1024" viewBox="0 0 1024 1024">
  <symbol id="main" width="1024" height="1024" viewBox="0 0 1024 1024">
    <path fill="none" d="M0 0h1024v1024H0z"/>
    <path fill="#dc7181" stroke="#000" d="M208.8 740c397-81.3 468.9 202.8 38.6 229.8 64.7-12.3 119.5-26.7 164-43.7a748.8 748.8 0 0 1-172.3 4.4 313 313 0 0 1-6-104.8c42-2 85-9 125.5-19.6-37.2-2.2-80.3 1-125.5 6.9l-5.9-39.4c58-25.2 116.4-39.4 176-27.7-49.5-11.8-112.6-14.9-194.4-6z"/>
    <path fill="#80000040" d="M232.2 885.7a872.8 872.8 0 0 0 179.1-37c-60.6 11.4-120.3 20-179.1 25.8v11.2M235 833c56.7-5 111.8-11.5 161.5-22.4-38.8-9.7-73.9-21-165-8.9L233 813c44.1-6.5 86.6-9.3 127-7a778.8 778.8 0 0 1-125.2 19.7v7.3zm193.6-63.2c-33.3-3.8-70.8-2.1-108.7 0 37-6.2 73.9-11.4 111.2-6.4m-193.5 160c73.8-.1 145.7-3.4 214.3-12.4-73.3 54.1-137.9 49.7-204.4 58.8 63.2-12.8 121.1-26.6 163.8-43.7a982 982 0 0 1-172.2 4.4l-1.5-7.1z"/>
    <path fill="#dc7181" stroke="#000" d="M564.3 1012c58.6-19.2 100.6-44.5 129.7-74.5-76.8 31.7-147.8 34-216.8 25.7l87-7c-107-32.1-142.3-94.7-143-138.7-3.5-191.5 355.2-204.4 362.1-5.5 2.9 81.4-52 171.5-219 200z"/>
    <path fill="#80000040" d="M564.3 1012c58.6-19.2 100.6-44.5 129.7-74.5-76.8 31.7-147.8 34-216.8 25.7l87-7c-107-32.1-142.3-94.7-143-138.7-1.8-98.9 93-150.2 186-149.2 2.4 0-180.5 11-159.2 149.2 12.5 82 100.9 104.1 159.2 109.7C797 945.4 783.2 810.6 783.3 812c2.9 81.4-52 171.5-219 200z"/>
    <path fill="none" stroke="#000" d="M509.8 934.4C475.8 829.1 531 744.7 639.6 674M517.3 798.9c77 43.2 158.9 74.6 258.4 62.8m-79 .5c27-67.5 26-123.2 10.6-170M668.6 858c15.6-71.8-5.4-125.6-58-163.8"/>
    <path fill="#f5cbad" stroke="#000" d="M598.6 515.7l-5.4-75.8c-28.8-9-54 7.2-74.2 59.6l79.6 16.2z"/>
    <path fill="#fff2de" stroke="#000" d="M596 477.5C567 176 765.3 65.6 760.2 374.2c53.2 83.7-21.3 126.4-164 103.3z"/>
    <ellipse cx="702.4" cy="415" fill="#ffd4c2" rx="22.9" ry="12.3"/>
    <ellipse cx="723.3" cy="354.1" fill="#3e2c27" rx="8.3" ry="46.8"/>
    <path fill="#f5cbad" d="M659.8 375c2.8-36 8-70.4 26-96.2l13 53.2c4.1-27.7 10-51.3 18-69.6C747 294.2 748 330 745.7 366.2c22.1-23.9 32.2-55.6 33.8-93C699.1 197 590 180.7 659.8 375z"/>
    <path fill="#dc7181" stroke="#000" d="M603.7 12.3c60.6 6 105.6 28.3 61 99.7 58.6-66.5 36.2-103.6-61-99.7z"/>
    <path fill="#db7584" stroke="#000" d="M337 489.3s28.6-117.2 29-136.7c4.3-214 70.2-274.1 198.3-271.5 171.4 3.5 229.8 58.3 251 207-9.4-44.3-25.6-79-47.3-104.6 20 68.7 24.2 133.6-9.5 189-3.6-26-3.1-51.6 3.1-77-2.7 21.2-7.8 41.1-20.3 57.1-2.7-43-11.5-82.5-29.5-116.8a324 324 0 0 0-16.2 95 207.1 207.1 0 0 1-16.1-70.5 685.7 685.7 0 0 0-32 114 600 600 0 0 1-18.2-86.3c-18.9 82.4-49 158.3-115 217.6 5.4-17.9 5.3-27.2 4.4-44.4a222.3 222.3 0 0 1-61.4 59.6c1.7-17.6 1.5-34.7 0-51.5a248.2 248.2 0 0 1-42.1 47.4 111 111 0 0 0 8-55.5 109.6 109.6 0 0 1-32.3 40.7c-3.1-17.3-3-36.8-2-56.1a141.5 141.5 0 0 1-51.9 43.5z"/>
    <path fill="none" stroke="#000" d="M423.1 461.2c23.1-42.2 22.2-44.8 41-94.3"/>
    <path fill="#80000040" d="M415.2 516.7c43.3-38 99.3-241.3 103.5-251.6v15.6l18.4-58.1 122-91.4c-10.1 67.7-13.5 131.1-5.5 187.3 1.4-18.6 25.6-81.5 29.1-81.1l8.5 43.3a245 245 0 0 1 20.6-55.3l-6.8-32.2c32.5 47 38.4 98.2 41 147.2 8.4-19 17-46.7 23.5-82.5 7 14.3-2 107-11 114.7-3.6-26-3.1-51.7 3.1-77-2.7 21.1-7.8 41-20.3 57-2.7-43-11.5-82.5-29.5-116.8a324 324 0 0 0-16.2 95 207.1 207.1 0 0 1-16.1-70.5 685.7 685.7 0 0 0-32 114 600 600 0 0 1-18.2-86.3c-18.9 82.4-49 158.3-115 217.6 5.4-17.9 5.3-27.2 4.4-44.4a222.3 222.3 0 0 1-61.4 59.6c1.7-17.6 1.5-34.7 0-51.5a248.2 248.2 0 0 1-42.1 47.4zm-16.6-98.3a367.3 367.3 0 0 0-61.6 70.9 157 157 0 0 0 51.8-43.5 72.3 72.3 0 0 0 9.8-27.4zm80.6-114.5c-23.9 72.4-49 144-90.4 192.6l2 5.4c45.2-38.7 67.9-121 88.4-198z"/>
    <path fill="#fff2de" stroke="#000" d="M552.4 433.6l-12.3-100c-52.2-22.4-66.3 90.3 12.3 100z"/>
    <path fill="#f5cbad" d="M548.9 412.6l-8.3-67.4c-35.3-15.2-47 64.4 8.3 67.4z"/>
    <path fill="#dc7181" stroke="#000" d="M673.1 89.3C666 73.7 629.8 67.2 574 67c-50.8 159.6-61.5 322.5 9.5 438.6-4.7-15.5-9-32.9-9.5-48-.3 17.5 25 41 95.1 75.1-49.3-128.3-47.9-276.1 4.1-443.4z"/>
    <path fill="#80000040" d="M669 532.7c-61.7-35-81.4-82-106-120v26.7c-25.2-39.1-25.7-218.2-13-283.5-4 20.4-50.9 224.3 33.4 349.7-4.7-15.5-9-32.9-9.5-48-.3 17.5 25 41 95.1 75.1z"/>
    <circle cx="472.9" cy="195.2" r="51.6" fill="#dc7181" stroke="#000"/>
    <path fill="#80000040" d="M416.9 293a132.9 132.9 0 0 0 47-39c40.8 4.6 58.7-19.5 62.3-51.4-5.7 50.4-79 48.8-98-22.9-10 14-16.3 38.5 16.8 68.2a193 193 0 0 1-21.5 23.6c6.4-7.7 9.9-18 10.3-31-10.7-1.5-22.8 3.7-36.6 16.2l-10.7-25.2c-7 3.7-2.3 14 12.6 40l24.4-14.8-14.6 29.6 14.6-7-6.6 13.7z"/>
    <path fill="none" stroke="#000" d="M458.8 145.5c-12.1 35.7-8.7 69 23.3 100.4M458.8 213c26.8-4 46-19.2 58.5-44m-96 21.6c-16 10.4-29 23.7-37.9 40.6 1.5 16 7 26.5 13 36.6 32.6-35.7 42.3-27.7 13 19.5 17.8-11.6 37-24.6 50.4-42.2"/>
    <path fill="#fcf7f9" d="M478.8 704c46.3 10 94.5 2.6 146.1-36.8L552.6 499l-31.1 59.3c-1.6 47.7-25.5 90.4-42.7 145.6z"/>
    <path fill="#7f636c" d="M478.8 704c46.3 10 94.5 2.6 146.1-36.8l-9.5-3.6c-43 29.1-93.2 39-132.9 30.6 0 0-2.6 6.3-3.7 9.8z"/>
    <path fill="#80808040" d="M523.6 576a67.6 67.6 0 0 0 14.8-28.4l27 53.5a282.6 282.6 0 0 1-31.4 74.6 266 266 0 0 0 46-42.2l28.4 36.3 8.1-7.4-64-163.3c-18.1 20.2-35.8 53.4-29 76.8z"/>
    <path fill="none" stroke="#000" d="M478.8 704c46.3 10 94.5 2.6 146.1-36.8L552.6 499l-31.1 59.3c-1.6 47.7-25.5 90.4-42.7 145.6z"/>
    <path fill="#fcf7f9" stroke="#000" d="M573.3 591.7c-53.7-82.6-3-123 20.3-88.3a317 317 0 0 1 31.2 58.5l-51.5 29.8z"/>
    <path fill="#ba798f" stroke="#000" d="M616.9 664.2l70.2 18.9-45.1-81.5-48.5 28 23.4 34.6z"/>
    <path fill="#7f636c" d="M567.8 592a91 91 0 0 0 21.3 40.3 167.3 167.3 0 0 0 58.7-31.8c-2.3-15.2-8-28.5-16.5-42a99 99 0 0 0-63.5 33.6z"/>
    <path fill="#fff" d="M639.7 573.6l-65.7 36c1 2.4 2.4 5 3.7 7.4l65.2-35.5s-2.1-5.5-3.2-7.9z"/>
    <path fill="none" stroke="#000" d="M567.8 592a91 91 0 0 0 21.3 40.3 167.3 167.3 0 0 0 58.7-31.8c-2.3-15.2-8-28.5-16.5-42a99 99 0 0 0-63.5 33.6z"/>
    <path fill="#7f636c" stroke="#000" d="M461 569.2c22-1 31.7 9.7 38.6 25.3 40.9-47 43.3-99.2 73.7-104l-50.6 7.3C499.8 522 486 543 461 569.2z"/>
    <path fill="#fcf7f9" d="M555.5 494c-15.6 6.8-34 52.6-53 82.9-8.6-9.3-16.2-15.4-25.6-16.1-2.7-5 30.2-42.6 47.6-62a776 776 0 0 0-41.1 55.6 47 47 0 0 1 20.7 13.5c12.8-31.1 28-54.8 42.5-72.5l8.9-1.3z"/>
    <path fill="#7f636c" stroke="#000" d="M610 770.3l-67.8 30.9a79 79 0 0 0-12.6-30.9L593 736l17 34.4z"/>
    <path fill="#fff2de" stroke="#000" d="M577.9 722.2l26.8 50.6c70-26.3 136-67.5 53.4-96.1l-80.3 45.5z"/>
    <path fill="#94594d" stroke="#000" d="M512.4 772.4s8.5 54.9 24.2 46.1c18.9-10.5-5.5-50.3-5.5-50.3l-18.7 4.2z"/>
    <path fill="#ba798f" d="M490.2 706.6a254.2 254.2 0 0 1-13.3 58.9c18.5-6 31.5-11 38.4-14.9l19.2 17.2 12.4-17.2 23.8 9 24.3-38.9 10.6 15c10.6-7.5 15-13.5 27.2-19.4v-11c12.8-3.5 20.6-5 30.8-8.5-2-6.8-4.4-13.6-7-20.3-6.3-4.9-16.9-8.5-31.6-10.8-45.1 35.2-90 46.5-134.8 41z"/>
    <path fill="#89465d" d="M490.2 706.6l-1.5 15.3c64 5.7 131.9-37.6 144.5-53.7 0 0-6.4-1.4-8.2-2.5l-3.3 2.5c-44 33.2-87.8 43.9-131.5 38.4z"/>
    <path fill="#89465d" d="M523.8 707.5c-3.8 16.6-11.6 41.9-29.7 52.1 9.2-3.1 21-8.8 21-8.8s9.4 8.8 14.4 12.5c-5-22.4-4.8-30.7-5.7-55.8zm17.5 6.4l9.2 38 20.2 7.7 1.5-2.4-21.7-46.8-9.2 3.5zm43.1-16.2a178.7 178.7 0 0 0 21.2 38l13.6-10.8-34.8-27.2zm48.4 18.6v-11l-33.3-15.7 33.3 26.7zm-12.8-40c13 8.3 26.4 15.9 40.9 21.4l2.7-.9-1.7-5.4c-14.4-4.8-28.1-10-41.9-15z"/>
    <path fill="none" stroke="#000" d="M490.2 706.6a254.2 254.2 0 0 1-13.3 58.9c18.5-6 31.5-11 38.4-14.9l19.2 17.2 12.4-17.2 23.8 9 24.3-38.9 10.6 15c10.6-7.5 15-13.5 27.2-19.4v-11c12.8-3.5 20.6-5 30.8-8.5-2-6.8-4.4-13.6-7-20.3-6.3-4.9-16.9-8.5-31.6-10.8-45.1 35.2-90 46.5-134.8 41z"/>
  </symbol>
  <use xlink:href="#main" href="#main" stroke-width="4"/>
</svg>