<svg xmlns="http://www.w3.org/2000/svg" xmlns:xlink="http://www.w3.org/1999/xlink" width="1024" height="1024" viewBox="0 0 1024 1024">
  <symbol id="main" width="1024" height="1024" viewBox="0 0 1024 1024">
    <path fill="#b94e4e" stroke="#000" d="M551 572l-11 22-36-19c1 15 0 30-4 42-23-20-46-39-70-55 1 16 8 31 18 46-39-14-116-105-61-181"/>
    <path fill="#7f636c" stroke="#000" d="M540 593c-14 43-28 78-49 110 22 16 45 22 69 23l-20-133z"/>
    <path fill="#00000073" d="M540 593c-6 22-22 63-25 65-6 28 9 45 39 52l-14-117z"/>
    <ellipse cx="704" cy="1012" fill="#e0e0e0" rx="117" ry="34"/>
    <path fill="#fff2de" stroke="#000" d="M648 908c37 122 94 112 66-16l-66 16z"/>
    <path fill="#ba798f" stroke="#000" d="M570 933c29-3 56-10 79-21 57-17 112-21 163-42l-45-101-193 40-4 124z"/>
    <path fill="#89465d" d="M618 851c7 20 12 65 12 65l4-1c0-18-9-66-9-65l45-10c4 20 6 41 8 61h2l-2-64s9-2 11-9c3-9-2-23-2-23l-113 29-1 28c18-1 31-5 45-11z"/>
    <path fill="#7e626c" stroke="#000" d="M682 519c-17 19-98 50-131 50-45 73 19 146 12 184-9 30-12 64-7 100 27-24 68-16 105-32 45-19 132-55 151-41-13-33-72-235-130-261z"/>
    <path fill="#fff" stroke="#000" d="M682 519c-17 19-98 50-131 50-45 73 19 146 12 184-9 30-11 55-8 91 27-24 69-16 106-32 45-19 132-55 151-41-13-33-72-226-130-252z"/>
    <path fill="#46363b" d="M551 572c49 8 110-5 158 15l-6-80c-42 29-89 56-152 65z"/>
    <path fill="#fff2de" stroke="#000" d="M594 565c66-18 147-69 144-115-2-33-30-56-30-95 0 0-33-251-227-201-195 51-88 283-88 283 15 60 6 68 17 100 12 36 117 45 184 28z"/>
    <path fill="#e18a97" stroke="#000" d="M426 49c47 3 63 28 55 66 32-53 13-77-55-66z"/>
    <path fill="#dc7181" stroke="#000" d="M263 316c-14 26-16 55-12 85 12 6 25 10 37 13l16-84c-8 2-24-5-41-14z"/>
    <circle cx="302" cy="264" r="63" fill="#dc7181" stroke="#000"/>
    <path fill="none" stroke="#000" d="M281 205c-29 34-33 72 10 121m-32-78c23-18 56-22 98-13"/>
    <path fill="#f5cbad" d="M399 454C295 190 665 41 687 327l-10-15 1 26c-34-68-18-11-18-11 1-6-55-74-80-84 7 64 3 91-6 145l-15-17s9 28-50-9h-1c1 19 6 35 6 35l-31-20s-27-26-43-92c-8 4-25 108-18 139-10-10-23-76-23-76v106z"/>
    <path fill="#dc7181" stroke="#000" d="M766 528c9-61-110-275-118-276 12 30 18 58 18 83-47-85-80-110-111-124 15 62 16 119 8 173-35-7-57-30-75-58 2 25 7 49 16 71-39-32-55-92-61-164-23 57-31 119-27 187-8-10-14-37-17-78-14 42-9 239 25 276-52-17-82-63-100-125-1 35 0 67 6 95-36-46-55-129-41-262-12 26-20 77-25 155-17-156 29-282 155-374 24-1 47-2 65 5 15-16 31-28 48-36 130 8 243 55 308 255-32-46-61-88-96-121 59 82 99 174 89 245-10-29-22-56-40-81 15 64 8 116-27 154z"/>
    <path fill="#7a000091" d="M766 528c9-61-110-275-118-276 12 30 18 58 18 83-47-85-80-110-111-124 15 62 16 119 8 173-35-7-57-30-75-58 2 25 7 49 16 71-39-32-55-92-61-164-23 57-31 119-27 187-8-10-14-37-17-78-14 42-9 239 25 276-52-17-82-63-100-125-1 35 0 67 6 95-28-32-14-88-10-125 7 43 18 95 76 123a559 559 0 0 1 6-287l5 29c8-54 26-94 39-127 4 83 35 151 35 149-3-8-5-55-3-58 17 32 38 60 75 78 6-60 0-122-15-186 55 25 82 65 110 104-5-25-14-50-22-75 25 21 150 208 149 288 10-37 12-89 10-148 3-2 48 35 48 102-10-29-22-56-40-81 15 64 8 116-27 154zM377 174c34-29 66-47 96-52-23-2-43-3-53 4-13 8-25 25-43 48zm237-61c-44-8-81-8-109 3 19-13 35-24 47-23 15 0 35 9 62 20z"/>
    <path fill="#3e2c27" d="M454 368c13-3 24 24 31 56s12 59 2 61c-11 2-25-21-33-53-8-31-13-60 0-64zm164-42c-13 3-9 33 0 64 10 31 20 56 32 53 8-3 6-29-2-61-8-31-17-59-30-56z"/>
    <path fill="#ffd4c2" d="M450 493c17-7 35-5 40 4s-5 22-23 28c-17 7-35 5-40-4s5-22 23-28zm235-65c-18 4-32 16-30 26 1 10 16 15 34 10s32-17 31-27-17-14-35-9z"/>
    <path fill="#e5ced8" d="M581 679c29 11 55 18 90 5-7 32-26 60-36 82 10-5 21-16 33-34 7 38 10 48 15 65l2-170-104 52z"/>
    <path fill="#ecdbaa" stroke="#000" d="M683 0h341v1024H683z"/>
    <path fill="#fff2de" stroke="#000" d="M636 672c2-28 0-60-6-93 83 5 109 80 6 93z"/>
    <path fill="#7f636c" stroke="#000" d="M586 575l16 107c11 0 23-1 36-4 2-34-1-69-7-103h-45z"/>
    <path fill="#fff" d="M607 576c5 37 9 71 10 105l7-1c-1-36-5-70-11-104"/>
    <path fill="none" stroke="#000" d="M183 243c-70-21-46-54 14-38m11-66c-44-31-10-80 27-21"/>
  </symbol>
  <use xlink:href="#main" href="#main" stroke-width="4"/>
</svg>