<svg viewBox="0 0 16 16" xmlns="http://www.w3.org/2000/svg" fill-rule="evenodd"><path d="M5.7 10.06a6.51 6.51 0 0 1-2.04.36c-.46 0-.69-.2-.69-.59a41.19 41.19 0 0 0 .13-3.56c0-.11.03-.2.1-.27a.37.37 0 0 1 .28-.11.38.38 0 0 1 .4.38 45.7 45.7 0 0 1-.13 3.4 6.45 6.45 0 0 0 1.8-.34.39.39 0 0 1 .38.38c0 .17-.07.28-.23.35zm3.36.14a.4.4 0 0 1-.27-.11 4.67 4.67 0 0 0-1.85-1.1l.03.9c0 .1-.04.2-.11.27a.38.38 0 0 1-.28.1.38.38 0 0 1-.28-.1.36.36 0 0 1-.11-.27 47.1 47.1 0 0 1 .01-1.25V6.4c0-.12.04-.23.11-.33.1-.13.23-.18.4-.17l.69.05c.26.04.48.1.66.2.79.39 1.19.88 1.19 1.47 0 .24-.09.46-.25.64-.17.2-.42.35-.75.48.5.27.86.55 1.11.83a.37.37 0 0 1-.02.52.38.38 0 0 1-.28.11zM7.28 6.7l-.32-.02v1.48h.12c.45 0 .79-.05 1-.17.1-.05.19-.11.27-.19.08-.08.11-.14.11-.18 0-.2-.13-.4-.39-.6a1.6 1.6 0 0 0-.79-.31zm5.36.51c-.16 0-.29-.09-.37-.26-.03-.09-.07-.14-.1-.15a.71.71 0 0 0-.23-.02c-.23 0-.5.18-.8.54-.43.5-.65.98-.65 1.43 0 .2.07.37.2.52.14.14.3.21.5.21.18 0 .36-.04.55-.14l.42-.27c.15-.1.26-.15.33-.15.11 0 .2.04.28.12a.37.37 0 0 1-.04.55 2.4 2.4 0 0 1-1.55.65 1.4 1.4 0 0 1-1.05-.46c-.28-.3-.42-.64-.42-1.03a3 3 0 0 1 .82-1.9c.46-.55.93-.83 1.41-.83a2.45 2.45 0 0 1 .4.04.4.4 0 0 1 .3-.12c.18 0 .3.1.34.32.03.16.05.34.05.55 0 .09-.03.17-.08.25a.35.35 0 0 1-.3.15z"/><path d="M8 .97a7.03 7.03 0 1 1 0 14.06A7.03 7.03 0 0 1 8 .97zm0 .55a6.48 6.48 0 1 1 0 12.96A6.48 6.48 0 0 1 8 1.52z"/></svg>
