<?xml version="1.0" encoding="UTF-8" standalone="no"?><!DOCTYPE svg PUBLIC "-//W3C//DTD SVG 1.1//EN" "http://www.w3.org/Graphics/SVG/1.1/DTD/svg11.dtd"><svg width="100%" height="100%" viewBox="0 0 16 16" version="1.1" xmlns="http://www.w3.org/2000/svg" xmlns:xlink="http://www.w3.org/1999/xlink" xml:space="preserve"><path d="M14.398,5.031c-0.214,-0.582 -1.183,-0.842 -1.593,-0.814c0.852,-2.925 -1.868,-1.89 -1.908,-1.906c-0.512,-0.206 -0.959,-1.241 -3.667,-0.757c-0.046,-0.486 0.142,-1.776 0.686,-1.48c-0.702,-0.418 -1.018,1.052 -0.796,1.48c-0.262,0.148 -2.351,0.314 -3.073,1.979c-1.168,-0.44 -2.711,0.76 -1.316,2.22c-0.448,0.335 -0.959,0.765 -1.129,1.367c0.266,-0.228 0.531,-0.456 0.795,-0.684c-0.154,0.414 -0.308,0.826 -0.463,1.24c0.431,0.124 0.863,0.246 1.295,0.37c0.258,0.922 -0.322,1.538 0.352,4.031c0.152,-0.344 0.054,-1.148 0.13,-1.128c0.152,0.292 0.536,0.91 0.518,1.516c0.166,-0.006 0.312,-0.464 0.408,-0.554c0.22,0.268 0.384,0.512 0.722,0.666c-0.098,-0.308 -0.198,-0.616 -0.296,-0.924c0.37,0.296 0.728,0.668 1.111,0.888c0.024,-0.024 -0.064,-0.202 -0.056,-0.258c0.098,0.08 0.198,0.16 0.296,0.24c0.074,-0.118 -0.01,-0.162 0.24,-0.166c-0.26,-0.266 -0.194,-0.574 -0.038,-0.5c0.076,0.258 0.414,0.574 0.722,0.758c-0.012,-0.154 -0.044,-0.326 -0.056,-0.48c0.236,0.146 0.38,0.426 0.37,0.814c-0.736,-0.032 -3.119,1.899 -3.129,3.051l9.094,0c-0.052,-1.82 -2.28,-2.875 -3.741,-3.255c-0.16,-0.444 0.193,-0.6 0.685,-1.202c-0.018,0.198 -0.038,0.394 -0.056,0.592c0.05,0 0.124,-0.19 0.222,-0.314c0.074,0.136 0.112,0.29 0.186,0.426c0.342,-0.878 0.552,-1.304 0.63,-1.258c0.026,0.32 -0.018,0.632 -0.092,0.962c0.098,-0.136 0.198,-0.272 0.296,-0.406c0.024,0.136 0.05,0.272 0.074,0.406c0.196,-0.094 0.656,-0.538 0.76,-1.388c0.434,0.364 0.386,1.63 0.444,1.61c0.144,-0.186 0.118,-0.512 0.204,-0.758c0.064,-0.006 0.076,0.36 0.112,0.444c0.246,-0.332 0.274,-1.278 0.338,-1.808c0.054,0.286 0.138,0.686 0.182,0.92c0.046,-0.304 0.056,-0.524 0.074,-0.61c0.004,0.052 0.097,0.246 0.147,0.352c0.676,-2.415 -1.797,-4.229 -0.591,-4.555c0.202,-0.13 0.396,-0.633 0.777,-0.701l0,-0.018c-0.21,-0.316 -0.455,-0.506 -0.685,-0.758c0.266,0.124 0.531,0.246 0.795,0.37c0.008,-0.008 0.014,-0.014 0.02,-0.02Z"/></svg>
